<svg width="17" height="23" viewBox="0 0 17 23" fill="none" xmlns="http://www.w3.org/2000/svg">
<g id="ArrowRight">
<path id="Vector" fill-rule="evenodd" clip-rule="evenodd" d="M1.0625 11.4999C1.0625 11.3093 1.11847 11.1265 1.2181 10.9917C1.31773 10.8569 1.45285 10.7812 1.59375 10.7812H14.1238L10.7801 6.25881C10.6804 6.12384 10.6243 5.9408 10.6243 5.74993C10.6243 5.55907 10.6804 5.37602 10.7801 5.24106C10.8799 5.10609 11.0152 5.03027 11.1562 5.03027C11.2973 5.03027 11.4326 5.10609 11.5324 5.24106L15.7824 10.9911C15.8318 11.0578 15.8711 11.1371 15.8979 11.2245C15.9247 11.3118 15.9384 11.4054 15.9384 11.4999C15.9384 11.5945 15.9247 11.6881 15.8979 11.7754C15.8711 11.8627 15.8318 11.942 15.7824 12.0088L11.5324 17.7588C11.4326 17.8938 11.2973 17.9696 11.1562 17.9696C11.0152 17.9696 10.8799 17.8938 10.7801 17.7588C10.6804 17.6238 10.6243 17.4408 10.6243 17.2499C10.6243 17.0591 10.6804 16.876 10.7801 16.7411L14.1238 12.2187H1.59375C1.45285 12.2187 1.31773 12.143 1.2181 12.0082C1.11847 11.8734 1.0625 11.6906 1.0625 11.4999Z" fill="#0580FD"/>
</g>
</svg>
