<svg width="15" height="17" viewBox="0 0 15 17" fill="none" xmlns="http://www.w3.org/2000/svg">
<g clip-path="url(#clip0_147_187)">
<path d="M3.28125 0C3.40557 0 3.5248 0.0559708 3.61271 0.1556C3.70061 0.255228 3.75 0.390354 3.75 0.53125V1.0625H11.25V0.53125C11.25 0.390354 11.2994 0.255228 11.3873 0.1556C11.4752 0.0559708 11.5944 0 11.7188 0C11.8431 0 11.9623 0.0559708 12.0502 0.1556C12.1381 0.255228 12.1875 0.390354 12.1875 0.53125V1.0625H13.125C13.6223 1.0625 14.0992 1.28638 14.4508 1.6849C14.8025 2.08341 15 2.62391 15 3.1875V14.875C15 15.4386 14.8025 15.9791 14.4508 16.3776C14.0992 16.7761 13.6223 17 13.125 17H1.875C1.37772 17 0.900806 16.7761 0.549175 16.3776C0.197544 15.9791 0 15.4386 0 14.875V3.1875C0 2.62391 0.197544 2.08341 0.549175 1.6849C0.900806 1.28638 1.37772 1.0625 1.875 1.0625H2.8125V0.53125C2.8125 0.390354 2.86189 0.255228 2.94979 0.1556C3.0377 0.0559708 3.15693 0 3.28125 0ZM0.9375 4.25V14.875C0.9375 15.1568 1.03627 15.427 1.21209 15.6263C1.3879 15.8256 1.62636 15.9375 1.875 15.9375H13.125C13.3736 15.9375 13.6121 15.8256 13.7879 15.6263C13.9637 15.427 14.0625 15.1568 14.0625 14.875V4.25H0.9375Z" fill="black"/>
</g>
<defs>
<clipPath id="clip0_147_187">
<rect width="15" height="17" fill="white"/>
</clipPath>
</defs>
</svg>
