<svg width="32" height="22" viewBox="0 0 32 22" fill="none" xmlns="http://www.w3.org/2000/svg">
<g id="Facebook" clip-path="url(#clip0_92_36)">
<path id="Vector" d="M31.9998 11.0673C31.9998 4.9541 24.8358 -0.00140381 15.9998 -0.00140381C7.15978 -2.88084e-05 -0.00421906 4.9541 -0.00421906 11.0687C-0.00421906 16.5921 5.84778 21.1708 13.4958 22.0013V14.267H9.43578V11.0687H13.4998V8.6281C13.4998 5.85472 15.8898 4.32297 19.5438 4.32297C21.2958 4.32297 23.1258 4.53885 23.1258 4.53885V7.26135H21.1078C19.1218 7.26135 18.5018 8.11522 18.5018 8.9911V11.0673H22.9378L22.2298 14.2656H18.4998V22C26.1478 21.1695 31.9998 16.5907 31.9998 11.0673Z" fill="black"/>
</g>
<defs>
<clipPath id="clip0_92_36">
<rect width="32" height="22" fill="white"/>
</clipPath>
</defs>
</svg>
