<svg width="32" height="20" viewBox="0 0 32 20" fill="none" xmlns="http://www.w3.org/2000/svg">
<g id="Instagram" clip-path="url(#clip0_92_34)">
<path id="Vector" d="M16 0C11.658 0 11.112 0.0125 9.406 0.06C7.7 0.11 6.538 0.2775 5.52 0.525C4.45219 0.776024 3.48498 1.16978 2.686 1.67875C1.87215 2.17837 1.24221 2.7828 0.84 3.45C0.444 4.085 0.174 4.8125 0.096 5.875C0.02 6.94375 0 7.28375 0 10.0013C0 12.7163 0.02 13.0563 0.096 14.1225C0.176 15.1875 0.444 15.9137 0.84 16.55C1.25 17.2075 1.796 17.765 2.686 18.3212C3.574 18.8775 4.466 19.22 5.518 19.475C6.538 19.7225 7.698 19.8912 9.402 19.94C11.11 19.9875 11.654 20 16 20C20.346 20 20.888 19.9875 22.596 19.94C24.298 19.89 25.464 19.7225 26.482 19.475C27.5491 19.2239 28.5156 18.8301 29.314 18.3212C30.204 17.765 30.75 17.2075 31.16 16.55C31.554 15.9137 31.824 15.1875 31.904 14.1225C31.98 13.0563 32 12.7163 32 10C32 7.28375 31.98 6.94375 31.904 5.87625C31.824 4.8125 31.554 4.085 31.16 3.45C30.7578 2.78278 30.1279 2.17834 29.314 1.67875C28.5153 1.16959 27.548 0.775807 26.48 0.525C25.46 0.2775 24.296 0.10875 22.594 0.06C20.886 0.0125 20.344 0 15.996 0H16.002H16ZM14.566 1.8025H16.002C20.274 1.8025 20.78 1.81125 22.466 1.86C24.026 1.90375 24.874 2.0675 25.438 2.20375C26.184 2.385 26.718 2.6025 27.278 2.9525C27.838 3.3025 28.184 3.635 28.474 4.1025C28.694 4.45375 28.954 4.98375 29.024 5.95875C29.102 7.0125 29.118 7.32875 29.118 9.9975C29.118 12.6663 29.102 12.9837 29.024 14.0375C28.954 15.0125 28.692 15.5413 28.474 15.8938C28.2175 16.3279 27.8081 16.7205 27.276 17.0425C26.716 17.3925 26.184 17.6088 25.436 17.79C24.876 17.9275 24.028 18.09 22.466 18.135C20.78 18.1825 20.274 18.1938 16.002 18.1938C11.73 18.1938 11.222 18.1825 9.536 18.135C7.976 18.09 7.13 17.9275 6.566 17.79C5.871 17.6299 5.24225 17.3745 4.726 17.0425C4.1935 16.72 3.78345 16.3271 3.526 15.8925C3.308 15.5412 3.046 15.0113 2.976 14.0363C2.9 12.9825 2.884 12.6663 2.884 9.995C2.884 7.325 2.9 7.01 2.976 5.95625C3.048 4.98125 3.308 4.45125 3.528 4.09875C3.818 3.6325 4.166 3.29875 4.726 2.94875C5.286 2.59875 5.818 2.3825 6.566 2.20125C7.13 2.06375 7.976 1.90125 9.536 1.85625C11.012 1.81375 11.584 1.80125 14.566 1.8V1.8025ZM24.542 3.4625C24.2899 3.4625 24.0402 3.49354 23.8072 3.55384C23.5743 3.61415 23.3626 3.70254 23.1844 3.81397C23.0061 3.9254 22.8646 4.05769 22.7682 4.20328C22.6717 4.34887 22.622 4.50491 22.622 4.6625C22.622 4.82009 22.6717 4.97613 22.7682 5.12172C22.8646 5.26731 23.0061 5.3996 23.1844 5.51103C23.3626 5.62246 23.5743 5.71085 23.8072 5.77116C24.0402 5.83146 24.2899 5.8625 24.542 5.8625C25.0512 5.8625 25.5396 5.73607 25.8996 5.51103C26.2597 5.28598 26.462 4.98076 26.462 4.6625C26.462 4.34424 26.2597 4.03902 25.8996 3.81397C25.5396 3.58893 25.0512 3.4625 24.542 3.4625ZM16.002 4.865C14.9121 4.85437 13.8298 4.97936 12.818 5.23268C11.8061 5.486 10.885 5.86259 10.1083 6.34053C9.33157 6.81847 8.71473 7.38821 8.29368 8.01657C7.87264 8.64494 7.6558 9.31938 7.6558 10.0006C7.6558 10.6819 7.87264 11.3563 8.29368 11.9847C8.71473 12.613 9.33157 13.1828 10.1083 13.6607C10.885 14.1387 11.8061 14.5153 12.818 14.7686C13.8298 15.0219 14.9121 15.1469 16.002 15.1363C18.1591 15.1152 20.2164 14.5649 21.73 13.6041C23.2435 12.6432 24.0918 11.349 24.0918 10.0006C24.0918 8.65228 23.2435 7.35802 21.73 6.39719C20.2164 5.43636 18.1591 4.88603 16.002 4.865ZM16.002 6.66625C17.4167 6.66625 18.7734 7.01748 19.7737 7.64268C20.774 8.26788 21.336 9.11583 21.336 10C21.336 10.8842 20.774 11.7321 19.7737 12.3573C18.7734 12.9825 17.4167 13.3337 16.002 13.3337C14.5873 13.3337 13.2306 12.9825 12.2303 12.3573C11.23 11.7321 10.668 10.8842 10.668 10C10.668 9.11583 11.23 8.26788 12.2303 7.64268C13.2306 7.01748 14.5873 6.66625 16.002 6.66625Z" fill="black"/>
</g>
<defs>
<clipPath id="clip0_92_34">
<rect width="32" height="20" fill="white"/>
</clipPath>
</defs>
</svg>
