<svg width="100" height="100" viewBox="0 0 100 100" fill="none" xmlns="http://www.w3.org/2000/svg">
<path fill-rule="evenodd" clip-rule="evenodd" d="M34.2587 14.3275C34.9976 14.6976 35.5593 15.3448 35.8204 16.1272C36.0816 16.9096 36.0209 17.7633 35.6518 18.5012L17.6158 54.4879L35.6581 90.4684C35.8456 90.8345 35.9586 91.2339 35.9906 91.6437C36.0226 92.0535 35.9729 92.4656 35.8444 92.8562C35.7159 93.2468 35.5111 93.6081 35.2419 93.9194C34.9727 94.2307 34.6443 94.4858 34.2758 94.6699C33.9072 94.8541 33.5058 94.9637 33.0945 94.9924C32.6833 95.0211 32.2704 94.9684 31.8797 94.8372C31.489 94.7061 31.1282 94.4991 30.8181 94.2283C30.508 93.9574 30.2548 93.628 30.073 93.2591L11.331 55.8833C11.1133 55.4501 11 54.9724 11 54.4879C11 54.0034 11.1133 53.5257 11.331 53.0925L30.073 15.7167C30.4441 14.9798 31.0932 14.4198 31.8778 14.1594C32.6625 13.899 33.5187 13.9595 34.2587 14.3275Z" fill="white"/>
</svg>
