<svg width="100" height="100" viewBox="0 0 100 100" fill="none" xmlns="http://www.w3.org/2000/svg">
<path fill-rule="evenodd" clip-rule="evenodd" d="M22.7351 14.33C23.4757 13.96 24.3335 13.8984 25.1196 14.159C25.9057 14.4195 26.5559 14.9807 26.927 15.7191L45.669 53.0938C45.8867 53.5269 46 54.0047 46 54.4892C46 54.9736 45.8867 55.4514 45.669 55.8845L26.927 93.2592C26.7452 93.6281 26.492 93.9575 26.1819 94.2283C25.8718 94.4991 25.511 94.7061 25.1203 94.8372C24.7296 94.9684 24.3167 95.0211 23.9055 94.9924C23.4942 94.9637 23.0928 94.8541 22.7242 94.6699C22.3557 94.4858 22.0273 94.2307 21.7581 93.9194C21.4889 93.6082 21.2841 93.2468 21.1556 92.8563C21.0271 92.4657 20.9774 92.0536 21.0094 91.6438C21.0414 91.234 21.1544 90.8346 21.3419 90.4686L39.3779 54.4892L21.3419 18.5098C20.9708 17.7713 20.9091 16.9161 21.1704 16.1322C21.4316 15.3484 21.9945 14.7001 22.7351 14.33Z" fill="white"/>
</svg>
