<svg width="26" height="27" viewBox="0 0 26 27" fill="none" xmlns="http://www.w3.org/2000/svg">
<g clip-path="url(#clip0_28_432)">
<path d="M19.0807 17.4557C20.6542 15.226 21.3589 12.4615 21.0539 9.71536C20.7489 6.96922 19.4567 4.44393 17.4358 2.6447C15.4149 0.845474 12.8143 -0.0949994 10.1543 0.0114365C7.49431 0.117872 4.97111 1.26337 3.08949 3.21875C1.20788 5.17413 0.106615 7.7952 0.00602474 10.5576C-0.0945657 13.3199 0.812936 16.0199 2.54697 18.1172C4.28101 20.2146 6.71369 21.5547 9.35834 21.8695C12.003 22.1842 14.6646 21.4504 16.8106 19.8148H16.8089C16.8577 19.8823 16.9097 19.9464 16.9682 20.0089L23.2244 26.5057C23.5291 26.8224 23.9425 27.0004 24.3735 27.0005C24.8046 27.0007 25.2181 26.823 25.523 26.5066C25.8279 26.1902 25.9993 25.7609 25.9994 25.3133C25.9996 24.8656 25.8285 24.4363 25.5238 24.1196L19.2676 17.6227C19.2095 17.5617 19.147 17.5069 19.0807 17.4557ZM19.4999 10.9689C19.4999 12.1878 19.2688 13.3946 18.8196 14.5207C18.3705 15.6468 17.7121 16.6699 16.8822 17.5318C16.0523 18.3936 15.067 19.0772 13.9827 19.5437C12.8983 20.0101 11.7361 20.2502 10.5624 20.2502C9.38874 20.2502 8.22655 20.0101 7.1422 19.5437C6.05785 19.0772 5.07259 18.3936 4.24267 17.5318C3.41274 16.6699 2.75441 15.6468 2.30526 14.5207C1.85611 13.3946 1.62493 12.1878 1.62493 10.9689C1.62493 8.50738 2.56656 6.14666 4.24267 4.40609C5.91877 2.66551 8.19206 1.68767 10.5624 1.68767C12.9328 1.68767 15.2061 2.66551 16.8822 4.40609C18.5583 6.14666 19.4999 8.50738 19.4999 10.9689Z" fill="black"/>
</g>
<defs>
<clipPath id="clip0_28_432">
<rect width="26" height="27" fill="white"/>
</clipPath>
</defs>
</svg>
