<svg width="34" height="26" viewBox="0 0 34 26" fill="none" xmlns="http://www.w3.org/2000/svg">
<g id="Youtube" clip-path="url(#clip0_92_38)">
<path id="Vector" d="M17.1084 3.24835H17.2975C19.0443 3.25323 27.8949 3.30198 30.2812 3.79273C31.0027 3.9425 31.6601 4.23444 32.1877 4.63937C32.7154 5.04429 33.0948 5.54803 33.2881 6.10023C33.5028 6.71773 33.6536 7.5351 33.7556 8.37848L33.7769 8.54748L33.8236 8.96998L33.8406 9.13898C33.9788 10.6242 33.9958 12.0152 33.9979 12.3191V12.441C33.9958 12.7562 33.9766 14.2415 33.8236 15.7885L33.8066 15.9591L33.7875 16.1281C33.6812 17.0576 33.524 17.9806 33.2881 18.6599C33.0954 19.2123 32.7162 19.7162 32.1884 20.1212C31.6607 20.5262 31.003 20.818 30.2812 20.9674C27.8162 21.4744 18.4471 21.5101 17.1488 21.5117H16.847C16.1904 21.5117 13.4746 21.502 10.6271 21.4272L10.2659 21.4175L10.081 21.411L9.71762 21.3996L9.35425 21.3882C6.9955 21.3086 4.74937 21.1802 3.7145 20.9657C2.99304 20.8165 2.33551 20.525 1.80779 20.1203C1.28007 19.7156 0.900674 19.212 0.707625 18.6599C0.47175 17.9822 0.3145 17.0576 0.20825 16.1281L0.19125 15.9575L0.17425 15.7885C0.0693761 14.6874 0.0112622 13.584 0 12.48L0 12.2801C0.00425 11.9307 0.02125 10.7234 0.136 9.39085L0.150875 9.22348L0.15725 9.13898L0.17425 8.96998L0.221 8.54748L0.24225 8.37848C0.34425 7.5351 0.495125 6.7161 0.70975 6.10023C0.902474 5.5478 1.28172 5.04383 1.80947 4.63884C2.33721 4.23384 2.99491 3.94205 3.71662 3.79273C4.7515 3.58148 6.99762 3.45148 9.35637 3.37023L9.71762 3.35885L10.0831 3.3491L10.2659 3.34423L10.6292 3.33285C12.6516 3.28309 14.6748 3.25546 16.6982 3.24998H17.1084V3.24835ZM13.6 8.4646V16.2939L22.4336 12.3809L13.6 8.4646Z" fill="black"/>
</g>
<defs>
<clipPath id="clip0_92_38">
<rect width="34" height="26" fill="white"/>
</clipPath>
</defs>
</svg>
